# xmcd
#
# Track frame offsets:
#	150
#	10912
#	21502
#	34920
#	46257
#	59717
#	70205
#	82680
#	96997
#	106877
#	116860
#	133550
#	148210
#	160605
#	175997
#
# Disc length: 2519 seconds
#
# Revision: 1
# Processed by: cddbd v1.5.1PL2 Copyright (c) Steve Scherf et al.
# Submitted via: audiograbber 1.83.01
#
DISCID=d009d50f
DTITLE=Bear Bridge Band - One More Ride
DYEAR=1993
DGENRE=Bluegrass
TTITLE0=One More Ride
TTITLE1=The Hills and Home
TTITLE2=Two Fools
TTITLE3=Shelbyville Turnaround
TTITLE4=The Beauty of the Rose
TTITLE5=I'm On a Journey
TTITLE6=Divided By Two
TTITLE7=I Heard My Mother Call My Name in Prayer
TTITLE8=I Got a Letter
TTITLE9=The Convict and the Child
TTITLE10=The River of Love
TTITLE11=Where Shall I Be?
TTITLE12=Frankfield Strut
TTITLE13=Your Heart Now Tells the Truth
TTITLE14=Rude and Rambling Man
EXTD=
EXTT0=
EXTT1=
EXTT2=
EXTT3=
EXTT4=
EXTT5=
EXTT6=
EXTT7=
EXTT8=
EXTT9=
EXTT10=
EXTT11=
EXTT12=
EXTT13=
EXTT14=
PLAYORDER=
